<svg width="15" height="19" viewBox="0 0 15 19" fill="none" xmlns="http://www.w3.org/2000/svg">
<path d="M8.00007 0C7.54007 0 7.07007 0.0400001 6.60007 0.14C3.84007 0.67 1.64007 2.9 1.12007 5.66C0.640071 8.27 1.60007 10.67 3.34007 12.22C3.77007 12.6 4.00007 13.13 4.00007 13.69V16C4.00007 17.1 4.90007 18 6.00007 18H6.28007C6.63007 18.6 7.26007 19 8.00007 19C8.74007 19 9.38007 18.6 9.72007 18H10.0001C11.1001 18 12.0001 17.1 12.0001 16V13.69C12.0001 13.14 12.2201 12.6 12.6401 12.23C14.0901 10.95 15.0001 9.08 15.0001 7C15.0001 3.13 11.8701 0 8.00007 0ZM10.0001 14H6.00007V13H10.0001V14ZM6.00007 16V15H10.0001V16H6.00007ZM11.3101 10.74C11.2201 10.82 11.1501 10.92 11.0701 11H4.92007C4.84007 10.91 4.77007 10.81 4.68007 10.73C3.36007 9.55 2.77007 7.79 3.09007 6.03C3.45007 4.09 5.05007 2.48 6.98007 2.1C7.32007 2.03 7.66007 2 8.00007 2C10.7601 2 13.0001 4.24 13.0001 7C13.0001 8.43 12.3901 9.79 11.3101 10.74Z" fill="black" fill-opacity="0.54"/>
</svg>
